<svg id="visual" viewBox="0 0 100 110" width="100" height="110" xmlns="http://www.w3.org/2000/svg" xmlns:xlink="http://www.w3.org/1999/xlink" version="1.1"><g transform="translate(48.69893734970181 52.05492363409517)"><path d="M36.1 -42.1C44.8 -35.8 48.5 -22.5 52.5 -8.1C56.4 6.4 60.7 21.9 55.7 33.6C50.7 45.4 36.5 53.2 23.5 52.8C10.5 52.5 -1.1 43.9 -11.9 37.8C-22.7 31.7 -32.6 28.1 -41.3 20.3C-50 12.5 -57.5 0.5 -54.8 -8.8C-52.1 -18.1 -39.2 -24.8 -28.4 -30.7C-17.6 -36.6 -8.8 -41.8 2.5 -44.7C13.7 -47.7 27.4 -48.4 36.1 -42.1" fill="#cdcdcd"></path></g></svg>
